<?xml version="1.0" encoding="UTF-8" standalone="no"?>
<!-- Created with Inkscape (http://www.inkscape.org/) -->

<svg
   xmlns:dc="http://purl.org/dc/elements/1.1/"
   xmlns:cc="http://creativecommons.org/ns#"
   xmlns:rdf="http://www.w3.org/1999/02/22-rdf-syntax-ns#"
   xmlns:svg="http://www.w3.org/2000/svg"
   xmlns="http://www.w3.org/2000/svg"
   xmlns:sodipodi="http://sodipodi.sourceforge.net/DTD/sodipodi-0.dtd"
   xmlns:inkscape="http://www.inkscape.org/namespaces/inkscape"
   width="210mm"
   height="297mm"
   viewBox="0 0 744.09448819 1052.3622047"
   id="svg4150"
   version="1.1"
   inkscape:version="0.91 r13725"
   sodipodi:docname="video.svg">
  <defs
     id="defs4152" />
  <sodipodi:namedview
     id="base"
     pagecolor="#ffffff"
     bordercolor="#666666"
     borderopacity="1.0"
     inkscape:pageopacity="0.0"
     inkscape:pageshadow="2"
     inkscape:zoom="1"
     inkscape:cx="184.97748"
     inkscape:cy="757.11239"
     inkscape:document-units="px"
     inkscape:current-layer="layer1"
     showgrid="false"
     inkscape:window-width="1920"
     inkscape:window-height="1017"
     inkscape:window-x="1672"
     inkscape:window-y="-8"
     inkscape:window-maximized="1" />
  <metadata
     id="metadata4155">
    <rdf:RDF>
      <cc:Work
         rdf:about="">
        <dc:format>image/svg+xml</dc:format>
        <dc:type
           rdf:resource="http://purl.org/dc/dcmitype/StillImage" />
        <dc:title></dc:title>
      </cc:Work>
    </rdf:RDF>
  </metadata>
  <g
     inkscape:label="Layer 1"
     inkscape:groupmode="layer"
     id="layer1">
    <rect
       style="opacity:1;fill:#ffffff;fill-opacity:0.5408163;stroke:#000000;stroke-width:1.5;stroke-linecap:round;stroke-linejoin:bevel;stroke-miterlimit:4;stroke-dasharray:none;stroke-dashoffset:0;stroke-opacity:1"
       id="rect4698"
       width="48.5"
       height="48.5"
       x="304.99997"
       y="320.29077"
       ry="5.6568542"
       inkscape:export-xdpi="180"
       inkscape:export-ydpi="180"
       rx="5.6568542" />
    <path
       style="opacity:1;fill:#ffffff;fill-opacity:0.55612242;stroke:#000000;stroke-width:1.5;stroke-linecap:round;stroke-linejoin:bevel;stroke-miterlimit:4;stroke-dasharray:none;stroke-dashoffset:0;stroke-opacity:1"
       d="m 333.66992,326.50977 a 8.3503494,8.4546909 0 0 0 -8.35156,8.45507 6.7818756,6.8666182 0 0 0 -6.61328,-5.38867 6.7818756,6.8666182 0 0 0 -6.7832,6.86719 6.7818756,6.8666182 0 0 0 2.5,5.31641 c -2.53337,0.56249 -4.41797,2.81002 -4.41797,5.51757 l 0,8.48438 c 0,3.13389 2.5243,5.65625 5.6582,5.65625 l 21.74219,0 c 2.69712,0 4.93844,-1.87007 5.51172,-4.38867 l 5.05664,3.63867 a 0.5,0.5 0 0 0 0.041,0.0293 l 0.0176,0.0137 0,-0.002 a 0.5,0.5 0 0 0 0.26367,0.0762 0.5,0.5 0 0 0 0.5,-0.5 0.5,0.5 0 0 0 0,-0.002 l 0.002,0 0.0234,-17.69922 a 0.5,0.5 0 0 0 0.002,-0.0254 0.5,0.5 0 0 0 -0.5,-0.5 0.5,0.5 0 0 0 -0.29102,0.0937 l 0,-0.002 -0.0176,0.0156 a 0.5,0.5 0 0 0 -0.041,0.0351 l -4.98438,4.19727 c -0.35801,-2.31041 -2.10032,-4.14951 -4.36133,-4.64453 a 8.3503494,8.4546909 0 0 0 3.39258,-6.78907 8.3503494,8.4546909 0 0 0 -8.34961,-8.45507 z m -8.18945,10.0664 a 8.3503494,8.4546909 0 0 0 3.05664,5.04297 l -5.39063,0 a 6.7818756,6.8666182 0 0 0 2.33399,-5.04297 z"
       id="rect4700"
       inkscape:export-xdpi="180"
       inkscape:export-ydpi="180"
       inkscape:connector-curvature="0" />
  </g>
</svg>
